<svg xmlns="http://www.w3.org/2000/svg" xmlns:xlink="http://www.w3.org/1999/xlink" xmlns:lucid="lucid" width="1521.5" height="1483"><g transform="translate(1040 181.5)" lucid:page-tab-id="0_0"><path d="M-600-160c22.1 0 40 17.9 40 40s-17.9 40-40 40h-80c-22.1 0-40-17.9-40-40s17.9-40 40-40z" stroke="#5e5e5e" stroke-width="3" fill="#fff"/><use xlink:href="#a" transform="matrix(1,0,0,1,-715,-155) translate(41.111111111111114 39.65277777777778)"/><path d="M-800 126a6 6 0 0 1 6-6h308a6 6 0 0 1 6 6v108a6 6 0 0 1-6 6h-308a6 6 0 0 1-6-6z" stroke="#5e5e5e" stroke-width="3" fill="#fff"/><use xlink:href="#b" transform="matrix(1,0,0,1,-788,132) translate(17.69135802469134 53.77777777777778)"/><use xlink:href="#c" transform="matrix(1,0,0,1,-788,132) translate(58.308641975308625 53.77777777777778)"/><use xlink:href="#d" transform="matrix(1,0,0,1,-788,132) translate(77.44444444444443 53.77777777777778)"/><use xlink:href="#e" transform="matrix(1,0,0,1,-788,132) translate(131.76543209876542 53.77777777777778)"/><use xlink:href="#f" transform="matrix(1,0,0,1,-788,132) translate(144.1111111111111 53.77777777777778)"/><path d="M-720-14.08a6.8 6.8 0 0 1 5.95-6.74l148.1-18.44A5.3 5.3 0 0 1-560-34V74a6 6 0 0 1-6 6h-148a6 6 0 0 1-6-6z" stroke="#5e5e5e" stroke-width="3" fill="#fff"/><use xlink:href="#g" transform="matrix(1,0,0,1,-715,-15) translate(17.037037037037038 48.71527777777778)"/><use xlink:href="#h" transform="matrix(1,0,0,1,-715,-15) translate(77.53086419753086 48.71527777777778)"/><path d="M-640-77.5v27.45" stroke="#5e5e5e" stroke-width="2" fill="none"/><path d="M-639-77.47h-2v-1.03h2z" stroke="#5e5e5e" stroke-width=".05" fill="#5e5e5e"/><path d="M-640-34.8l-4.63-14.25h9.26z" stroke="#5e5e5e" stroke-width="2" fill="#5e5e5e"/><path d="M-640 82.5V100" stroke="#5e5e5e" stroke-width="2" fill="none"/><path d="M-639 82.53h-2V81.5h2z" stroke="#5e5e5e" stroke-width=".05" fill="#5e5e5e"/><path d="M-640 115.26l-4.63-14.26h9.26z" stroke="#5e5e5e" stroke-width="2" fill="#5e5e5e"/><path d="M-645.14 283.1a10 10 0 0 1 10.28 0l89.72 53.8a3.6 3.6 0 0 1 0 6.2l-89.72 53.8a10 10 0 0 1-10.28 0l-89.72-53.8a3.6 3.6 0 0 1 0-6.2z" stroke="#5e5e5e" stroke-width="3" fill="#fff"/><use xlink:href="#i" transform="matrix(1,0,0,1,-735,285) translate(43.52351851851853 59.02777777777778)"/><use xlink:href="#j" transform="matrix(1,0,0,1,-735,285) translate(84.1408024691358 59.02777777777778)"/><use xlink:href="#k" transform="matrix(1,0,0,1,-735,285) translate(103.2766049382716 59.02777777777778)"/><path d="M-849.6 341H-910v-2h60.4zm110.5 0H-817v-2h77.9z" stroke="#008a0e" stroke-width=".05" fill="#008a0e"/><path d="M-738.1 340l.1 1h-1.14v-2h1.13z" fill="#008a0e"/><path d="M-738.1 340l.12 1.02h-1.18v-2.04h1.18zm-1-.98v1.96h1.07l-.1-.98.1-.98z" stroke="#008a0e" stroke-width=".05" fill="#008a0e"/><path d="M-905.36 341l-4.64 14.26-4.63-14.26z" fill="#008a0e"/><path d="M-904 340l-6 18.5-6-18.5zm-6 12.03l3.26-10.03h-6.52z" stroke="#008a0e" stroke-width=".05" fill="#008a0e"/><use xlink:href="#l" transform="matrix(1,0,0,1,-849.601710808221,329.3333333333333) translate(0 14.222222222222223)"/><path d="M-979.55 364.84A11.84 11.84 0 0 1-970 360h148c12.15 0 22 26.86 22 60s-9.85 60-22 60h-148a11.84 11.84 0 0 1-9.55-4.84l-36.9-50.32a8.18 8.18 0 0 1 0-9.68z" stroke="#5e5e5e" stroke-width="3" fill="#fff"/><use xlink:href="#m" transform="matrix(1,0,0,1,-1015,365) translate(29.758086419753077 59.02777777777778)"/><use xlink:href="#n" transform="matrix(1,0,0,1,-1015,365) translate(103.77043209876543 59.02777777777778)"/><use xlink:href="#o" transform="matrix(1,0,0,1,-1015,365) translate(134.63462962962961 59.02777777777778)"/><path d="M-465.37 402.68a12 12 0 0 1 10.74 0l109.26 54.64a3 3 0 0 1 0 5.36l-109.26 54.64a12 12 0 0 1-10.74 0l-109.26-54.64a3 3 0 0 1 0-5.36z" stroke="#5e5e5e" stroke-width="3" fill="#fff"/><use xlink:href="#i" transform="matrix(1,0,0,1,-575,405) translate(57.04203703703704 45.27777777777778)"/><use xlink:href="#p" transform="matrix(1,0,0,1,-575,405) translate(97.65932098765433 45.27777777777778)"/><use xlink:href="#q" transform="matrix(1,0,0,1,-575,405) translate(129.75808641975308 45.27777777777778)"/><use xlink:href="#r" transform="matrix(1,0,0,1,-575,405) translate(51.17783950617284 71.94444444444446)"/><use xlink:href="#s" transform="matrix(1,0,0,1,-575,405) translate(94.38771604938272 71.94444444444446)"/><use xlink:href="#j" transform="matrix(1,0,0,1,-575,405) translate(135.005 71.94444444444446)"/><use xlink:href="#t" transform="matrix(1,0,0,1,-575,405) translate(154.1408024691358 71.94444444444446)"/><path d="M-45.37 642.68a12 12 0 0 1 10.74 0l109.26 54.64a3 3 0 0 1 0 5.36l-109.26 54.64a12 12 0 0 1-10.74 0l-109.26-54.64a3 3 0 0 1 0-5.36z" stroke="#5e5e5e" stroke-width="3" fill="#fff"/><use xlink:href="#i" transform="matrix(1,0,0,1,-155,645) translate(57.04203703703704 45.27777777777778)"/><use xlink:href="#p" transform="matrix(1,0,0,1,-155,645) translate(97.65932098765433 45.27777777777778)"/><use xlink:href="#u" transform="matrix(1,0,0,1,-155,645) translate(129.75808641975308 45.27777777777778)"/><use xlink:href="#r" transform="matrix(1,0,0,1,-155,645) translate(51.17783950617284 71.94444444444446)"/><use xlink:href="#s" transform="matrix(1,0,0,1,-155,645) translate(94.38771604938272 71.94444444444446)"/><use xlink:href="#j" transform="matrix(1,0,0,1,-155,645) translate(135.005 71.94444444444446)"/><use xlink:href="#v" transform="matrix(1,0,0,1,-155,645) translate(154.1408024691358 71.94444444444446)"/><path d="M-460.93 381.57h-2v-30.9h2zM-540.9 341v-2h52.28v2z" stroke="#e81313" stroke-width=".05" fill="#e81313"/><path d="M-540.86 341H-542l.1-1-.1-1h1.14z" fill="#e81313"/><path d="M-540.84 341.02h-1.18l.1-1.02-.1-1.02h1.18zm-1.13-2l.1.98-.1.98h1.08v-1.96z" stroke="#e81313" stroke-width=".05" fill="#e81313"/><path d="M-461.93 396.83l-4.64-14.26h9.27z" fill="#e81313"/><path d="M-461.93 400.07l-6-18.5h12zm-3.26-16.5l3.27 10.03 3.26-10.03z" stroke="#e81313" stroke-width=".05" fill="#e81313"/><use xlink:href="#w" transform="matrix(1,0,0,1,-488.6166680119144,329.3333333333333) translate(0 14.222222222222223)"/><path d="M-759.55 524.84A11.84 11.84 0 0 1-750 520h148c12.15 0 22 26.86 22 60s-9.85 60-22 60h-148a11.84 11.84 0 0 1-9.55-4.84l-36.9-50.32a8.18 8.18 0 0 1 0-9.68z" stroke="#5e5e5e" stroke-width="3" fill="#fff"/><use xlink:href="#x" transform="matrix(1,0,0,1,-795,525) translate(45.251913580246914 59.02777777777778)"/><use xlink:href="#y" transform="matrix(1,0,0,1,-795,525) translate(102.04203703703703 59.02777777777778)"/><path d="M280.45 904.84A11.84 11.84 0 0 1 290 900h148c12.15 0 22 26.86 22 60s-9.85 60-22 60H290a11.84 11.84 0 0 1-9.55-4.84l-36.9-50.32a8.18 8.18 0 0 1 0-9.68z" stroke="#5e5e5e" stroke-width="3" fill="#fff"/><use xlink:href="#z" transform="matrix(1,0,0,1,245,905) translate(16.82598765432099 59.02777777777778)"/><use xlink:href="#A" transform="matrix(1,0,0,1,245,905) translate(130.34450617283954 59.02777777777778)"/><use xlink:href="#B" transform="matrix(1,0,0,1,245,905) translate(185.83833333333334 59.02777777777778)"/><path d="M-529.55 644.84A11.84 11.84 0 0 1-520 640h148c12.15 0 22 26.86 22 60s-9.85 60-22 60h-148a11.84 11.84 0 0 1-9.55-4.84l-36.9-50.32a8.18 8.18 0 0 1 0-9.68z" stroke="#5e5e5e" stroke-width="3" fill="#fff"/><use xlink:href="#C" transform="matrix(1,0,0,1,-565,645) translate(32.90623456790123 59.02777777777778)"/><path d="M-299.55 764.84A11.84 11.84 0 0 1-290 760h148c12.15 0 22 26.86 22 60s-9.85 60-22 60h-148a11.84 11.84 0 0 1-9.55-4.84l-36.9-50.32a8.18 8.18 0 0 1 0-9.68z" stroke="#5e5e5e" stroke-width="3" fill="#fff"/><use xlink:href="#z" transform="matrix(1,0,0,1,-335,765) translate(16.82598765432099 59.02777777777778)"/><use xlink:href="#A" transform="matrix(1,0,0,1,-335,765) translate(130.34450617283954 59.02777777777778)"/><use xlink:href="#D" transform="matrix(1,0,0,1,-335,765) translate(185.83833333333334 59.02777777777778)"/><path d="M-679.45 461h-4.5l-.83.06-.76.2-.73.3-.67.4-.6.5-.5.6-.4.67-.3.73-.2.76-.06.82V500h-2v-34.04l.08-1.06.26-1.06.42-1.02.57-.94.72-.83.83-.72.94-.57 1.02-.42 1.06-.26 1.06-.08h4.6zm100.65 0h-68.05v-2h68.05z" stroke="#008a0e" stroke-width=".05" fill="#008a0e"/><path d="M-577.7 459l-.1 1 .1 1h-1.13v-2h1.14z" fill="#008a0e"/><path d="M-577.67 459l-.1 1 .1 1-1.18.02v-2.04h1.2zm-1.13.02v1.96h1.08l-.1-.98.1-.98z" stroke="#008a0e" stroke-width=".05" fill="#008a0e"/><path d="M-690 515.26l-4.63-14.26h9.26z" fill="#008a0e"/><path d="M-690 518.5l-6-18.5h12zm-3.26-16.5l3.26 10.03 3.26-10.03z" stroke="#008a0e" stroke-width=".05" fill="#008a0e"/><use xlink:href="#l" transform="matrix(1,0,0,1,-679.4467977954514,449.3333333333333) translate(0 14.222222222222223)"/><path d="M-243.84 459.34l1.02.42.94.57.83.72.72.83.57.94.42 1.02.26 1.06.08 1.06v35.45h-2v-35.36l-.06-.82-.2-.76-.3-.73-.4-.67-.5-.6-.6-.5-.67-.4-.67-.3v-2.06zM-341.2 461v-2h63.32v2z" stroke="#e81313" stroke-width=".05" fill="#e81313"/><path d="M-341.17 461h-1.14l.1-1-.1-1h1.13z" fill="#e81313"/><path d="M-341.15 461.02h-1.2l.13-1.02-.12-1 1.2-.02zm-1.13-2l.1.98-.1.98h1.08v-1.96z" stroke="#e81313" stroke-width=".05" fill="#e81313"/><path d="M-240 516.68l-4.63-14.27h9.26z" fill="#e81313"/><path d="M-240 519.9l-6-18.5h12zm-3.26-16.5l3.26 10.04 3.26-10.03z" stroke="#e81313" stroke-width=".05" fill="#e81313"/><use xlink:href="#w" transform="matrix(1,0,0,1,-277.88284931021275,449.3333333333333) translate(0 14.222222222222223)"/><path d="M-454.45 581.04l-.33.03-.76.18-.73.3-.67.4-.6.52-.5.6-.4.66-.3.73-.2.76-.06.82V620h-2v-34.04l.08-1.06.26-1.06.42-1.02.57-.94.72-.83.83-.72.94-.57 1.02-.42 1.06-.26.65-.05zm95.65-.04h-63.05v-2h63.05z" stroke="#008a0e" stroke-width=".05" fill="#008a0e"/><path d="M-357.7 579l-.1 1 .1 1h-1.13v-2h1.14z" fill="#008a0e"/><path d="M-357.67 579l-.1 1 .1 1-1.18.02V579h1.2zm-1.13.02V581h1.08l-.1-.98.1-.98z" stroke="#008a0e" stroke-width=".05" fill="#008a0e"/><path d="M-460 635.26l-4.63-14.26h9.26z" fill="#008a0e"/><path d="M-460 638.5l-6-18.5h12zm-3.26-16.5l3.26 10.03 3.26-10.03z" stroke="#008a0e" stroke-width=".05" fill="#008a0e"/><use xlink:href="#l" transform="matrix(1,0,0,1,-454.4467977954514,569.3333333333334) translate(0 14.222222222222223)"/><path d="M-245.37 522.68a12 12 0 0 1 10.74 0l109.26 54.64a3 3 0 0 1 0 5.36l-109.26 54.64a12 12 0 0 1-10.74 0l-109.26-54.64a3 3 0 0 1 0-5.36z" stroke="#5e5e5e" stroke-width="3" fill="#fff"/><use xlink:href="#i" transform="matrix(1,0,0,1,-355,525) translate(57.04203703703704 45.27777777777778)"/><use xlink:href="#p" transform="matrix(1,0,0,1,-355,525) translate(97.65932098765433 45.27777777777778)"/><use xlink:href="#E" transform="matrix(1,0,0,1,-355,525) translate(129.75808641975308 45.27777777777778)"/><use xlink:href="#r" transform="matrix(1,0,0,1,-355,525) translate(51.17783950617284 71.94444444444446)"/><use xlink:href="#s" transform="matrix(1,0,0,1,-355,525) translate(94.38771604938272 71.94444444444446)"/><use xlink:href="#j" transform="matrix(1,0,0,1,-355,525) translate(135.005 71.94444444444446)"/><use xlink:href="#F" transform="matrix(1,0,0,1,-355,525) translate(154.1408024691358 71.94444444444446)"/><path d="M154.63 762.68a12 12 0 0 1 10.74 0l109.26 54.64a3 3 0 0 1 0 5.36l-109.26 54.64a12 12 0 0 1-10.74 0L45.37 822.68a3 3 0 0 1 0-5.36z" stroke="#5e5e5e" stroke-width="3" fill="#fff"/><use xlink:href="#i" transform="matrix(1,0,0,1,45,765) translate(57.04203703703704 45.27777777777778)"/><use xlink:href="#p" transform="matrix(1,0,0,1,45,765) translate(97.65932098765433 45.27777777777778)"/><use xlink:href="#G" transform="matrix(1,0,0,1,45,765) translate(129.75808641975308 45.27777777777778)"/><use xlink:href="#r" transform="matrix(1,0,0,1,45,765) translate(51.17783950617284 71.94444444444446)"/><use xlink:href="#s" transform="matrix(1,0,0,1,45,765) translate(94.38771604938272 71.94444444444446)"/><use xlink:href="#j" transform="matrix(1,0,0,1,45,765) translate(135.005 71.94444444444446)"/><use xlink:href="#H" transform="matrix(1,0,0,1,45,765) translate(154.1408024691358 71.94444444444446)"/><path d="M-39 621.4h-2v-30.73h2zm-82.2-40.4v-2h53.32v2z" stroke="#e81313" stroke-width=".05" fill="#e81313"/><path d="M-121.17 581h-1.14l.1-1-.1-1h1.13z" fill="#e81313"/><path d="M-121.15 581.02h-1.2l.13-1.02-.12-1 1.2-.02zm-1.13-2l.1.98-.1.98h1.08V579z" stroke="#e81313" stroke-width=".05" fill="#e81313"/><path d="M-40 636.68l-4.63-14.27h9.27z" fill="#e81313"/><path d="M-40 639.9l-6-18.5h12zm-3.26-16.5l3.26 10.04 3.26-10.03z" stroke="#e81313" stroke-width=".05" fill="#e81313"/><use xlink:href="#w" transform="matrix(1,0,0,1,-67.88284931021273,569.3333333333334) translate(0 14.222222222222223)"/><path d="M-229 740h-2v-29.33h2zm70.2-39h-48.05v-2h48.05z" stroke="#008a0e" stroke-width=".05" fill="#008a0e"/><path d="M-157.7 699l-.1 1 .1 1h-1.13v-2h1.14z" fill="#008a0e"/><path d="M-157.67 699l-.1 1 .1 1-1.18.02V699h1.2zm-1.13.02V701h1.08l-.1-.98.1-.98z" stroke="#008a0e" stroke-width=".05" fill="#008a0e"/><path d="M-230 755.26l-4.63-14.26h9.26z" fill="#008a0e"/><path d="M-230 758.5l-6-18.5h12zm-3.26-16.5l3.26 10.03 3.26-10.03z" stroke="#008a0e" stroke-width=".05" fill="#008a0e"/><use xlink:href="#l" transform="matrix(1,0,0,1,-239.44679779545143,689.3333333333334) translate(0 14.222222222222223)"/><path d="M161 741.4h-2v-30.73h2zM78.8 701v-2h53.32v2z" stroke="#e81313" stroke-width=".05" fill="#e81313"/><path d="M78.83 701H77.7l.1-1-.1-1h1.13z" fill="#e81313"/><path d="M78.85 701.02h-1.2l.13-1.02-.12-1 1.2-.02zm-1.13-2l.1.98-.1.98h1.08V699z" stroke="#e81313" stroke-width=".05" fill="#e81313"/><path d="M160 756.68l-4.63-14.27h9.26z" fill="#e81313"/><path d="M160 759.9l-6-18.5h12zm-3.26-16.5l3.26 10.04 3.26-10.03z" stroke="#e81313" stroke-width=".05" fill="#e81313"/><use xlink:href="#w" transform="matrix(1,0,0,1,132.11715068978728,689.3333333333334) translate(0 14.222222222222223)"/><path d="M-79.55 904.84A11.84 11.84 0 0 1-70 900H78c12.15 0 22 26.86 22 60s-9.85 60-22 60H-70a11.84 11.84 0 0 1-9.55-4.84l-36.9-50.32a8.18 8.18 0 0 1 0-9.68z" stroke="#5e5e5e" stroke-width="3" fill="#fff"/><g><use xlink:href="#z" transform="matrix(1,0,0,1,-115,905) translate(16.82598765432099 59.02777777777778)"/><use xlink:href="#A" transform="matrix(1,0,0,1,-115,905) translate(130.34450617283954 59.02777777777778)"/><use xlink:href="#I" transform="matrix(1,0,0,1,-115,905) translate(185.83833333333334 59.02777777777778)"/></g><path d="M-9 880h-2v-36.18h2zm50.2-59H-3.96l-.82.07-.76.18-.73.3-.67.4-.6.52h-2.5l.37-.6.72-.82.83-.72.94-.57 1.02-.42 1.06-.26 1.06-.08H41.2z" stroke="#008a0e" stroke-width=".05" fill="#008a0e"/><path d="M42.3 819l-.1 1 .1 1h-1.13v-2h1.14z" fill="#008a0e"/><path d="M42.33 819l-.1 1 .1 1-1.18.02V819h1.2zm-1.13.02V821h1.08l-.1-.98.1-.98z" stroke="#008a0e" stroke-width=".05" fill="#008a0e"/><path d="M-10 895.26L-14.63 881h9.27z" fill="#008a0e"/><path d="M-10 898.5l-6-18.5h12zm-3.26-16.5l3.26 10.03L-6.74 882z" stroke="#008a0e" stroke-width=".05" fill="#008a0e"/><g><use xlink:href="#l" transform="matrix(1,0,0,1,-26.296296296296298,822.4838348324885) translate(0 14.222222222222223)"/></g><path d="M351 880h-2v-46.18h2zm-72.2-59v-2h54.46v2z" stroke="#e81313" stroke-width=".05" fill="#e81313"/><path d="M278.83 821h-1.14l.1-1-.1-1h1.13z" fill="#e81313"/><path d="M278.85 821.02h-1.2l.13-1.02-.12-1 1.2-.02zm-1.13-2l.1.98-.1.98h1.08V819z" stroke="#e81313" stroke-width=".05" fill="#e81313"/><path d="M350 895.26L345.37 881h9.26z" fill="#e81313"/><path d="M350 898.5l-6-18.5h12zm-3.26-16.5l3.26 10.03 3.26-10.03z" stroke="#e81313" stroke-width=".05" fill="#e81313"/><g><use xlink:href="#w" transform="matrix(1,0,0,1,333.25925925925924,812.4838348324885) translate(0 14.222222222222223)"/></g><path d="M-600 1200c22.1 0 40 17.9 40 40s-17.9 40-40 40h-80c-22.1 0-40-17.9-40-40s17.9-40 40-40z" stroke="#5e5e5e" stroke-width="3" fill="#fff"/><g><use xlink:href="#J" transform="matrix(1,0,0,1,-715,1205) translate(55.925925925925924 39.65277777777778)"/></g><path d="M-689.47 642.5V1114a6 6 0 0 0 6 6H-646a6 6 0 0 1 6 6v54" stroke="#5e5e5e" stroke-width="2" fill="none"/><path d="M-688.47 642.53h-2v-1.03h2z" stroke="#5e5e5e" stroke-width=".05" fill="#5e5e5e"/><path d="M-640 1195.26l-4.63-14.26h9.26z" stroke="#5e5e5e" stroke-width="2" fill="#5e5e5e"/><path d="M-459.47 762.5V1114a6 6 0 0 1-6 6H-634a6 6 0 0 0-6 6v54" stroke="#5e5e5e" stroke-width="2" fill="none"/><path d="M-458.47 762.53h-2v-1.03h2z" stroke="#5e5e5e" stroke-width=".05" fill="#5e5e5e"/><path d="M-640 1195.26l-4.63-14.26h9.26z" stroke="#5e5e5e" stroke-width="2" fill="#5e5e5e"/><path d="M-229.47 882.5V1114a6 6 0 0 1-6 6H-634a6 6 0 0 0-6 6v54" stroke="#5e5e5e" stroke-width="2" fill="none"/><path d="M-228.47 882.53h-2v-1.03h2z" stroke="#5e5e5e" stroke-width=".05" fill="#5e5e5e"/><path d="M-640 1195.26l-4.63-14.26h9.26z" stroke="#5e5e5e" stroke-width="2" fill="#5e5e5e"/><path d="M-9.47 1022.5v91.5a6 6 0 0 1-6 6H-634a6 6 0 0 0-6 6v54" stroke="#5e5e5e" stroke-width="2" fill="none"/><path d="M-8.47 1022.53h-2v-1.03h2z" stroke="#5e5e5e" stroke-width=".05" fill="#5e5e5e"/><path d="M-640 1195.26l-4.63-14.26h9.26z" stroke="#5e5e5e" stroke-width="2" fill="#5e5e5e"/><path d="M350.53 1022.5v91.5a6 6 0 0 1-6 6H-634a6 6 0 0 0-6 6v54" stroke="#5e5e5e" stroke-width="2" fill="none"/><path d="M351.53 1022.53h-2v-1.03h2z" stroke="#5e5e5e" stroke-width=".05" fill="#5e5e5e"/><path d="M-640 1195.26l-4.63-14.26h9.26z" stroke="#5e5e5e" stroke-width="2" fill="#5e5e5e"/><path d="M-909.47 482.5V1114a6 6 0 0 0 6 6H-646a6 6 0 0 1 6 6v54" stroke="#5e5e5e" stroke-width="2" fill="none"/><path d="M-908.47 482.53h-2v-1.03h2z" stroke="#5e5e5e" stroke-width=".05" fill="#5e5e5e"/><path d="M-640 1195.26l-4.63-14.26h9.26z" stroke="#5e5e5e" stroke-width="2" fill="#5e5e5e"/><path d="M-640 242.5v19.16" stroke="#5e5e5e" stroke-width="2" fill="none"/><path d="M-639 242.53h-2v-1.03h2z" stroke="#5e5e5e" stroke-width=".05" fill="#5e5e5e"/><path d="M-640 276.92l-4.63-14.26h9.26z" stroke="#5e5e5e" stroke-width="2" fill="#5e5e5e"/><defs><path fill="#333" d="M33 0v-248h34V0H33" id="K"/><path fill="#333" d="M190 0L58-211 59 0H30v-248h39L202-35l-2-213h31V0h-41" id="L"/><path fill="#333" d="M212-179c-10-28-35-45-73-45-59 0-87 40-87 99 0 60 29 101 89 101 43 0 62-24 78-52l27 14C228-24 195 4 139 4 59 4 22-46 18-125c-6-104 99-153 187-111 19 9 31 26 39 46" id="M"/><path fill="#333" d="M140-251c81 0 123 46 123 126C263-46 219 4 140 4 59 4 17-45 17-125s42-126 123-126zm0 227c63 0 89-41 89-101s-29-99-89-99c-61 0-89 39-89 99S79-25 140-24" id="N"/><g id="a"><use transform="matrix(0.06172839506172839,0,0,0.06172839506172839,0,0)" xlink:href="#K"/><use transform="matrix(0.06172839506172839,0,0,0.06172839506172839,6.172839506172839,0)" xlink:href="#L"/><use transform="matrix(0.06172839506172839,0,0,0.06172839506172839,22.160493827160494,0)" xlink:href="#K"/><use transform="matrix(0.06172839506172839,0,0,0.06172839506172839,28.333333333333332,0)" xlink:href="#M"/><use transform="matrix(0.06172839506172839,0,0,0.06172839506172839,44.32098765432099,0)" xlink:href="#K"/><use transform="matrix(0.06172839506172839,0,0,0.06172839506172839,50.49382716049383,0)" xlink:href="#N"/></g><path fill="#333" d="M24-231v-30h32v30H24zM24 0v-190h32V0H24" id="O"/><path fill="#333" d="M210-169c-67 3-38 105-44 169h-31v-121c0-29-5-50-35-48C34-165 62-65 56 0H25l-1-190h30c1 10-1 24 2 32 10-44 99-50 107 0 11-21 27-35 58-36 85-2 47 119 55 194h-31v-121c0-29-5-49-35-48" id="P"/><path fill="#333" d="M96-169c-40 0-48 33-48 73s9 75 48 75c24 0 41-14 43-38l32 2c-6 37-31 61-74 61-59 0-76-41-82-99-10-93 101-131 147-64 4 7 5 14 7 22l-32 3c-4-21-16-35-41-35" id="Q"/><g id="b"><use transform="matrix(0.06172839506172839,0,0,0.06172839506172839,0,0)" xlink:href="#O"/><use transform="matrix(0.06172839506172839,0,0,0.06172839506172839,4.876543209876543,0)" xlink:href="#P"/><use transform="matrix(0.06172839506172839,0,0,0.06172839506172839,23.33333333333333,0)" xlink:href="#Q"/></g><path fill="#333" d="M18-150v-26h174v26H18zm0 90v-26h174v26H18" id="R"/><use transform="matrix(0.06172839506172839,0,0,0.06172839506172839,0,0)" xlink:href="#R" id="c"/><path fill="#333" d="M115-194c55 1 70 41 70 98S169 2 115 4C84 4 66-9 55-30l1 105H24l-1-265h31l2 30c10-21 28-34 59-34zm-8 174c40 0 45-34 45-75s-6-73-45-74c-42 0-51 32-51 76 0 43 10 73 51 73" id="S"/><path fill="#333" d="M100-194c63 0 86 42 84 106H49c0 40 14 67 53 68 26 1 43-12 49-29l28 8c-11 28-37 45-77 45C44 4 14-33 15-96c1-61 26-98 85-98zm52 81c6-60-76-77-97-28-3 7-6 17-6 28h103" id="T"/><path fill="#333" d="M135-143c-3-34-86-38-87 0 15 53 115 12 119 90S17 21 10-45l28-5c4 36 97 45 98 0-10-56-113-15-118-90-4-57 82-63 122-42 12 7 21 19 24 35" id="U"/><path fill="#333" d="M100-194c62-1 85 37 85 99 1 63-27 99-86 99S16-35 15-95c0-66 28-99 85-99zM99-20c44 1 53-31 53-75 0-43-8-75-51-75s-53 32-53 75 10 74 51 75" id="V"/><g id="d"><use transform="matrix(0.06172839506172839,0,0,0.06172839506172839,0,0)" xlink:href="#S"/><use transform="matrix(0.06172839506172839,0,0,0.06172839506172839,12.345679012345679,0)" xlink:href="#T"/><use transform="matrix(0.06172839506172839,0,0,0.06172839506172839,24.691358024691358,0)" xlink:href="#U"/><use transform="matrix(0.06172839506172839,0,0,0.06172839506172839,35.80246913580247,0)" xlink:href="#V"/></g><path fill="#333" d="M0 4l72-265h28L28 4H0" id="W"/><use transform="matrix(0.06172839506172839,0,0,0.06172839506172839,0,0)" xlink:href="#W" id="e"/><path fill="#333" d="M87 75C49 33 22-17 22-94c0-76 28-126 65-167h31c-38 41-64 92-64 168S80 34 118 75H87" id="X"/><path fill="#333" d="M141-36C126-15 110 5 73 4 37 3 15-17 15-53c-1-64 63-63 125-63 3-35-9-54-41-54-24 1-41 7-42 31l-33-3c5-37 33-52 76-52 45 0 72 20 72 64v82c-1 20 7 32 28 27v20c-31 9-61-2-59-35zM48-53c0 20 12 33 32 33 41-3 63-29 60-74-43 2-92-5-92 41" id="Y"/><path fill="#333" d="M24 0v-261h32V0H24" id="Z"/><path fill="#333" d="M59-47c-2 24 18 29 38 22v24C64 9 27 4 27-40v-127H5v-23h24l9-43h21v43h35v23H59v120" id="aa"/><path fill="#333" d="M84 4C-5 8 30-112 23-190h32v120c0 31 7 50 39 49 72-2 45-101 50-169h31l1 190h-30c-1-10 1-25-2-33-11 22-28 36-60 37" id="ab"/><path fill="#333" d="M114-163C36-179 61-72 57 0H25l-1-190h30c1 12-1 29 2 39 6-27 23-49 58-41v29" id="ac"/><path fill="#333" d="M80-196l47-18 7 23-49 13 32 44-20 13-27-46-27 45-21-12 33-44-49-13 8-23 47 19-2-53h23" id="ad"/><path fill="#333" d="M33-261c38 41 65 92 65 168S71 34 33 75H2C39 34 66-17 66-93S39-220 2-261h31" id="ae"/><g id="f"><use transform="matrix(0.06172839506172839,0,0,0.06172839506172839,0,0)" xlink:href="#X"/><use transform="matrix(0.06172839506172839,0,0,0.06172839506172839,7.345679012345679,0)" xlink:href="#Y"/><use transform="matrix(0.06172839506172839,0,0,0.06172839506172839,19.691358024691358,0)" xlink:href="#Z"/><use transform="matrix(0.06172839506172839,0,0,0.06172839506172839,24.5679012345679,0)" xlink:href="#aa"/><use transform="matrix(0.06172839506172839,0,0,0.06172839506172839,30.740740740740737,0)" xlink:href="#ab"/><use transform="matrix(0.06172839506172839,0,0,0.06172839506172839,43.08641975308642,0)" xlink:href="#ac"/><use transform="matrix(0.06172839506172839,0,0,0.06172839506172839,50.432098765432094,0)" xlink:href="#Y"/><use transform="matrix(0.06172839506172839,0,0,0.06172839506172839,62.77777777777777,0)" xlink:href="#ad"/><use transform="matrix(0.06172839506172839,0,0,0.06172839506172839,71.41975308641975,0)" xlink:href="#Y"/><use transform="matrix(0.06172839506172839,0,0,0.06172839506172839,83.76543209876543,0)" xlink:href="#Z"/><use transform="matrix(0.06172839506172839,0,0,0.06172839506172839,88.64197530864197,0)" xlink:href="#aa"/><use transform="matrix(0.06172839506172839,0,0,0.06172839506172839,94.81481481481481,0)" xlink:href="#ab"/><use transform="matrix(0.06172839506172839,0,0,0.06172839506172839,107.1604938271605,0)" xlink:href="#ac"/><use transform="matrix(0.06172839506172839,0,0,0.06172839506172839,114.50617283950618,0)" xlink:href="#Y"/><use transform="matrix(0.06172839506172839,0,0,0.06172839506172839,126.85185185185188,0)" xlink:href="#ae"/></g><path fill="#333" d="M68-38c1 34 0 65-14 84H32c9-13 17-26 17-46H33v-38h35" id="af"/><g id="g"><use transform="matrix(0.06172839506172839,0,0,0.06172839506172839,0,0)" xlink:href="#S"/><use transform="matrix(0.06172839506172839,0,0,0.06172839506172839,12.345679012345679,0)" xlink:href="#T"/><use transform="matrix(0.06172839506172839,0,0,0.06172839506172839,24.691358024691358,0)" xlink:href="#U"/><use transform="matrix(0.06172839506172839,0,0,0.06172839506172839,35.80246913580247,0)" xlink:href="#V"/><use transform="matrix(0.06172839506172839,0,0,0.06172839506172839,48.148148148148145,0)" xlink:href="#af"/></g><g id="h"><use transform="matrix(0.06172839506172839,0,0,0.06172839506172839,0,0)" xlink:href="#Y"/><use transform="matrix(0.06172839506172839,0,0,0.06172839506172839,12.345679012345679,0)" xlink:href="#Z"/><use transform="matrix(0.06172839506172839,0,0,0.06172839506172839,17.22222222222222,0)" xlink:href="#aa"/><use transform="matrix(0.06172839506172839,0,0,0.06172839506172839,23.39506172839506,0)" xlink:href="#ab"/><use transform="matrix(0.06172839506172839,0,0,0.06172839506172839,35.74074074074074,0)" xlink:href="#ac"/><use transform="matrix(0.06172839506172839,0,0,0.06172839506172839,43.08641975308642,0)" xlink:href="#Y"/></g><g id="i"><use transform="matrix(0.06172839506172839,0,0,0.06172839506172839,0,0)" xlink:href="#O"/><use transform="matrix(0.06172839506172839,0,0,0.06172839506172839,4.876543209876543,0)" xlink:href="#P"/><use transform="matrix(0.06172839506172839,0,0,0.06172839506172839,23.33333333333333,0)" xlink:href="#Q"/></g><path fill="#333" d="M18-100v-36l175-74v27L42-118l151 64v27" id="ag"/><use transform="matrix(0.06172839506172839,0,0,0.06172839506172839,0,0)" xlink:href="#ag" id="j"/><path fill="#333" d="M27 0v-27h64v-190l-56 39v-29l58-41h29v221h61V0H27" id="ah"/><path fill="#333" d="M134-131c28 9 52 24 51 62-1 50-34 73-85 73S17-19 16-69c0-36 21-54 49-61-75-25-45-126 34-121 46 3 78 18 79 63 0 33-17 51-44 57zm-34-11c31 1 46-15 46-44 0-28-17-43-47-42-29 0-46 13-45 42 1 28 16 44 46 44zm1 122c35 0 51-18 51-52 0-30-18-46-53-46-33 0-51 17-51 47 0 34 19 51 53 51" id="ai"/><path fill="#333" d="M33 0v-38h34V0H33" id="aj"/><path fill="#333" d="M54-142c48-35 137-8 131 61C196 18 31 33 14-55l32-4c7 23 22 37 52 37 35-1 51-22 54-58 4-55-73-65-99-34H22l8-134h141v27H59" id="ak"/><g id="k"><use transform="matrix(0.06172839506172839,0,0,0.06172839506172839,0,0)" xlink:href="#ah"/><use transform="matrix(0.06172839506172839,0,0,0.06172839506172839,12.345679012345679,0)" xlink:href="#ai"/><use transform="matrix(0.06172839506172839,0,0,0.06172839506172839,24.691358024691358,0)" xlink:href="#aj"/><use transform="matrix(0.06172839506172839,0,0,0.06172839506172839,30.864197530864196,0)" xlink:href="#ak"/></g><path fill="#333" d="M169-182c-1-43-94-46-97-3 18 66 151 10 154 114 3 95-165 93-204 36-6-8-10-19-12-30l50-8c3 46 112 56 116 5-17-69-150-10-154-114-4-87 153-88 188-35 5 8 8 18 10 28" id="al"/><path fill="#333" d="M25-224v-37h50v37H25zM25 0v-190h50V0H25" id="am"/><path fill="#333" d="M220-157c-53 9-28 100-34 157h-49v-107c1-27-5-49-29-50C55-147 81-57 75 0H25l-1-190h47c2 12-1 28 3 38 10-53 101-56 108 0 13-22 24-43 59-42 82 1 51 116 57 194h-49v-107c-1-25-5-48-29-50" id="an"/><g id="l"><use transform="matrix(0.04938271604938272,0,0,0.04938271604938272,0,0)" xlink:href="#al"/><use transform="matrix(0.04938271604938272,0,0,0.04938271604938272,11.851851851851853,0)" xlink:href="#am"/><use transform="matrix(0.04938271604938272,0,0,0.04938271604938272,16.790123456790127,0)" xlink:href="#an"/></g><path fill="#333" d="M205 0l-28-72H64L36 0H1l101-248h38L239 0h-34zm-38-99l-47-123c-12 45-31 82-46 123h93" id="ao"/><path fill="#333" d="M115-194c53 0 69 39 70 98 0 66-23 100-70 100C84 3 66-7 56-30L54 0H23l1-261h32v101c10-23 28-34 59-34zm-8 174c40 0 45-34 45-75 0-40-5-75-45-74-42 0-51 32-51 76 0 43 10 73 51 73" id="ap"/><path fill="#333" d="M141 0L90-78 38 0H4l68-98-65-92h35l48 74 47-74h35l-64 92 68 98h-35" id="aq"/><g id="m"><use transform="matrix(0.06172839506172839,0,0,0.06172839506172839,0,0)" xlink:href="#ao"/><use transform="matrix(0.06172839506172839,0,0,0.06172839506172839,14.814814814814813,0)" xlink:href="#ap"/><use transform="matrix(0.06172839506172839,0,0,0.06172839506172839,27.160493827160494,0)" xlink:href="#Y"/><use transform="matrix(0.06172839506172839,0,0,0.06172839506172839,39.50617283950617,0)" xlink:href="#O"/><use transform="matrix(0.06172839506172839,0,0,0.06172839506172839,44.382716049382715,0)" xlink:href="#aq"/><use transform="matrix(0.06172839506172839,0,0,0.06172839506172839,55.49382716049382,0)" xlink:href="#V"/></g><path fill="#333" d="M85-194c31 0 48 13 60 33l-1-100h32l1 261h-30c-2-10 0-23-3-31C134-8 116 4 85 4 32 4 16-35 15-94c0-66 23-100 70-100zm9 24c-40 0-46 34-46 75 0 40 6 74 45 74 42 0 51-32 51-76 0-42-9-74-50-73" id="ar"/><g id="n"><use transform="matrix(0.06172839506172839,0,0,0.06172839506172839,0,0)" xlink:href="#ar"/><use transform="matrix(0.06172839506172839,0,0,0.06172839506172839,12.345679012345679,0)" xlink:href="#V"/></g><path fill="#333" d="M30-248c87 1 191-15 191 75 0 78-77 80-158 76V0H30v-248zm33 125c57 0 124 11 124-50 0-59-68-47-124-48v98" id="as"/><g id="o"><use transform="matrix(0.06172839506172839,0,0,0.06172839506172839,0,0)" xlink:href="#as"/><use transform="matrix(0.06172839506172839,0,0,0.06172839506172839,14.814814814814813,0)" xlink:href="#T"/><use transform="matrix(0.06172839506172839,0,0,0.06172839506172839,27.160493827160494,0)" xlink:href="#U"/><use transform="matrix(0.06172839506172839,0,0,0.06172839506172839,38.27160493827161,0)" xlink:href="#V"/></g><path fill="#333" d="M18-27v-27l151-64-151-65v-27l175 74v36" id="at"/><g id="p"><use transform="matrix(0.06172839506172839,0,0,0.06172839506172839,0,0)" xlink:href="#at"/><use transform="matrix(0.06172839506172839,0,0,0.06172839506172839,12.962962962962962,0)" xlink:href="#R"/></g><g id="q"><use transform="matrix(0.06172839506172839,0,0,0.06172839506172839,0,0)" xlink:href="#ah"/><use transform="matrix(0.06172839506172839,0,0,0.06172839506172839,12.345679012345679,0)" xlink:href="#ai"/><use transform="matrix(0.06172839506172839,0,0,0.06172839506172839,24.691358024691358,0)" xlink:href="#aj"/><use transform="matrix(0.06172839506172839,0,0,0.06172839506172839,30.864197530864196,0)" xlink:href="#ak"/></g><path fill="#333" d="M117-194c89-4 53 116 60 194h-32v-121c0-31-8-49-39-48C34-167 62-67 57 0H25l-1-190h30c1 10-1 24 2 32 11-22 29-35 61-36" id="au"/><g id="r"><use transform="matrix(0.06172839506172839,0,0,0.06172839506172839,0,0)" xlink:href="#Y"/><use transform="matrix(0.06172839506172839,0,0,0.06172839506172839,12.345679012345679,0)" xlink:href="#au"/><use transform="matrix(0.06172839506172839,0,0,0.06172839506172839,24.691358024691358,0)" xlink:href="#ar"/></g><g id="s"><use transform="matrix(0.06172839506172839,0,0,0.06172839506172839,0,0)" xlink:href="#O"/><use transform="matrix(0.06172839506172839,0,0,0.06172839506172839,4.876543209876543,0)" xlink:href="#P"/><use transform="matrix(0.06172839506172839,0,0,0.06172839506172839,23.33333333333333,0)" xlink:href="#Q"/></g><path fill="#333" d="M101-251c82-7 93 87 43 132L82-64C71-53 59-42 53-27h129V0H18c2-99 128-94 128-182 0-28-16-43-45-43s-46 15-49 41l-32-3c6-41 34-60 81-64" id="av"/><g id="t"><use transform="matrix(0.06172839506172839,0,0,0.06172839506172839,0,0)" xlink:href="#av"/><use transform="matrix(0.06172839506172839,0,0,0.06172839506172839,12.345679012345679,0)" xlink:href="#ak"/></g><path fill="#333" d="M126-127c33 6 58 20 58 59 0 88-139 92-164 29-3-8-5-16-6-25l32-3c6 27 21 44 54 44 32 0 52-15 52-46 0-38-36-46-79-43v-28c39 1 72-4 72-42 0-27-17-43-46-43-28 0-47 15-49 41l-32-3c6-42 35-63 81-64 48-1 79 21 79 65 0 36-21 52-52 59" id="aw"/><path fill="#333" d="M101-251c68 0 85 55 85 127S166 4 100 4C33 4 14-52 14-124c0-73 17-127 87-127zm-1 229c47 0 54-49 54-102s-4-102-53-102c-51 0-55 48-55 102 0 53 5 102 54 102" id="ax"/><g id="u"><use transform="matrix(0.06172839506172839,0,0,0.06172839506172839,0,0)" xlink:href="#aw"/><use transform="matrix(0.06172839506172839,0,0,0.06172839506172839,12.345679012345679,0)" xlink:href="#ax"/><use transform="matrix(0.06172839506172839,0,0,0.06172839506172839,24.691358024691358,0)" xlink:href="#aj"/><use transform="matrix(0.06172839506172839,0,0,0.06172839506172839,30.864197530864196,0)" xlink:href="#ax"/></g><g id="v"><use transform="matrix(0.06172839506172839,0,0,0.06172839506172839,0,0)" xlink:href="#aw"/><use transform="matrix(0.06172839506172839,0,0,0.06172839506172839,12.345679012345679,0)" xlink:href="#ak"/></g><path fill="#333" d="M175 0L67-191c6 58 2 128 3 191H24v-248h59L193-55c-6-58-2-129-3-193h46V0h-61" id="ay"/><path fill="#333" d="M132-34C116-15 102 5 68 4 31 3 10-16 10-54c-1-60 55-63 116-61 1-26-3-47-28-47-18 1-26 9-28 27l-52-2c7-38 36-58 82-57s74 22 75 68l1 82c-1 14 12 18 25 15v27c-30 8-71 5-69-32zm-48 3c29 0 43-24 42-57-32 0-66-3-65 30 0 17 8 27 23 27zm82-228c-2 27-9 52-40 51-27-1-66-46-73 0H29c0-29 9-51 39-51 28 0 66 44 74 0h24" id="az"/><path fill="#333" d="M110-194c64 0 96 36 96 99 0 64-35 99-97 99-61 0-95-36-95-99 0-62 34-99 96-99zm-1 164c35 0 45-28 45-65 0-40-10-65-43-65-34 0-45 26-45 65 0 36 10 65 43 65" id="aA"/><g id="w"><use transform="matrix(0.04938271604938272,0,0,0.04938271604938272,0,0)" xlink:href="#ay"/><use transform="matrix(0.04938271604938272,0,0,0.04938271604938272,12.790123456790125,0)" xlink:href="#az"/><use transform="matrix(0.04938271604938272,0,0,0.04938271604938272,22.66666666666667,0)" xlink:href="#aA"/></g><g id="x"><use transform="matrix(0.06172839506172839,0,0,0.06172839506172839,0,0)" xlink:href="#as"/><use transform="matrix(0.06172839506172839,0,0,0.06172839506172839,14.814814814814813,0)" xlink:href="#T"/><use transform="matrix(0.06172839506172839,0,0,0.06172839506172839,27.160493827160494,0)" xlink:href="#U"/><use transform="matrix(0.06172839506172839,0,0,0.06172839506172839,38.27160493827161,0)" xlink:href="#V"/></g><g id="y"><use transform="matrix(0.06172839506172839,0,0,0.06172839506172839,0,0)" xlink:href="#au"/><use transform="matrix(0.06172839506172839,0,0,0.06172839506172839,12.345679012345679,0)" xlink:href="#V"/><use transform="matrix(0.06172839506172839,0,0,0.06172839506172839,24.691358024691358,0)" xlink:href="#ac"/><use transform="matrix(0.06172839506172839,0,0,0.06172839506172839,32.03703703703704,0)" xlink:href="#P"/><use transform="matrix(0.06172839506172839,0,0,0.06172839506172839,50.49382716049382,0)" xlink:href="#Y"/><use transform="matrix(0.06172839506172839,0,0,0.06172839506172839,62.8395061728395,0)" xlink:href="#Z"/></g><g id="z"><use transform="matrix(0.06172839506172839,0,0,0.06172839506172839,0,0)" xlink:href="#N"/><use transform="matrix(0.06172839506172839,0,0,0.06172839506172839,17.28395061728395,0)" xlink:href="#ap"/><use transform="matrix(0.06172839506172839,0,0,0.06172839506172839,29.629629629629626,0)" xlink:href="#T"/><use transform="matrix(0.06172839506172839,0,0,0.06172839506172839,41.9753086419753,0)" xlink:href="#U"/><use transform="matrix(0.06172839506172839,0,0,0.06172839506172839,53.08641975308642,0)" xlink:href="#O"/><use transform="matrix(0.06172839506172839,0,0,0.06172839506172839,57.96296296296296,0)" xlink:href="#ar"/><use transform="matrix(0.06172839506172839,0,0,0.06172839506172839,70.30864197530865,0)" xlink:href="#Y"/><use transform="matrix(0.06172839506172839,0,0,0.06172839506172839,82.65432098765433,0)" xlink:href="#ar"/><use transform="matrix(0.06172839506172839,0,0,0.06172839506172839,95.00000000000001,0)" xlink:href="#T"/></g><path fill="#333" d="M143 4C61 4 22-44 18-125c-5-107 100-154 193-111 17 8 29 25 37 43l-32 9c-13-25-37-40-76-40-61 0-88 39-88 99 0 61 29 100 91 101 35 0 62-11 79-27v-45h-74v-28h105v86C228-13 192 4 143 4" id="aB"/><g id="A"><use transform="matrix(0.06172839506172839,0,0,0.06172839506172839,0,0)" xlink:href="#aB"/><use transform="matrix(0.06172839506172839,0,0,0.06172839506172839,17.28395061728395,0)" xlink:href="#ac"/><use transform="matrix(0.06172839506172839,0,0,0.06172839506172839,24.629629629629626,0)" xlink:href="#Y"/><use transform="matrix(0.06172839506172839,0,0,0.06172839506172839,36.9753086419753,0)" xlink:href="#ab"/></g><use transform="matrix(0.06172839506172839,0,0,0.06172839506172839,0,0)" xlink:href="#aw" id="B"/><path fill="#333" d="M100-194c63 0 86 42 84 106H49c0 40 14 67 53 68 26 1 43-12 49-29l28 8c-11 28-37 45-77 45C44 4 14-33 15-96c1-61 26-98 85-98zm52 81c6-60-76-77-97-28-3 7-6 17-6 28h103zm-74-98c8-23 27-35 38-54h36v5l-58 49H78" id="aC"/><path fill="#333" d="M16-82v-28h88v28H16" id="aD"/><g id="C"><use transform="matrix(0.06172839506172839,0,0,0.06172839506172839,0,0)" xlink:href="#as"/><use transform="matrix(0.06172839506172839,0,0,0.06172839506172839,14.814814814814813,0)" xlink:href="#ac"/><use transform="matrix(0.06172839506172839,0,0,0.06172839506172839,22.160493827160494,0)" xlink:href="#aC"/><use transform="matrix(0.06172839506172839,0,0,0.06172839506172839,34.50617283950617,0)" xlink:href="#aD"/><use transform="matrix(0.06172839506172839,0,0,0.06172839506172839,41.85185185185185,0)" xlink:href="#N"/><use transform="matrix(0.06172839506172839,0,0,0.06172839506172839,59.1358024691358,0)" xlink:href="#ap"/><use transform="matrix(0.06172839506172839,0,0,0.06172839506172839,71.48148148148148,0)" xlink:href="#T"/><use transform="matrix(0.06172839506172839,0,0,0.06172839506172839,83.82716049382717,0)" xlink:href="#U"/><use transform="matrix(0.06172839506172839,0,0,0.06172839506172839,94.93827160493828,0)" xlink:href="#O"/><use transform="matrix(0.06172839506172839,0,0,0.06172839506172839,99.81481481481482,0)" xlink:href="#ar"/><use transform="matrix(0.06172839506172839,0,0,0.06172839506172839,112.16049382716051,0)" xlink:href="#Y"/><use transform="matrix(0.06172839506172839,0,0,0.06172839506172839,124.50617283950619,0)" xlink:href="#ar"/><use transform="matrix(0.06172839506172839,0,0,0.06172839506172839,136.85185185185188,0)" xlink:href="#T"/></g><use transform="matrix(0.06172839506172839,0,0,0.06172839506172839,0,0)" xlink:href="#ah" id="D"/><g id="E"><use transform="matrix(0.06172839506172839,0,0,0.06172839506172839,0,0)" xlink:href="#av"/><use transform="matrix(0.06172839506172839,0,0,0.06172839506172839,12.345679012345679,0)" xlink:href="#ak"/><use transform="matrix(0.06172839506172839,0,0,0.06172839506172839,24.691358024691358,0)" xlink:href="#aj"/><use transform="matrix(0.06172839506172839,0,0,0.06172839506172839,30.864197530864196,0)" xlink:href="#ax"/></g><g id="F"><use transform="matrix(0.06172839506172839,0,0,0.06172839506172839,0,0)" xlink:href="#aw"/><use transform="matrix(0.06172839506172839,0,0,0.06172839506172839,12.345679012345679,0)" xlink:href="#ax"/></g><g id="G"><use transform="matrix(0.06172839506172839,0,0,0.06172839506172839,0,0)" xlink:href="#aw"/><use transform="matrix(0.06172839506172839,0,0,0.06172839506172839,12.345679012345679,0)" xlink:href="#ak"/><use transform="matrix(0.06172839506172839,0,0,0.06172839506172839,24.691358024691358,0)" xlink:href="#aj"/><use transform="matrix(0.06172839506172839,0,0,0.06172839506172839,30.864197530864196,0)" xlink:href="#ax"/></g><path fill="#333" d="M155-56V0h-30v-56H8v-25l114-167h33v167h35v25h-35zm-30-156c-27 46-58 90-88 131h88v-131" id="aE"/><g id="H"><use transform="matrix(0.06172839506172839,0,0,0.06172839506172839,0,0)" xlink:href="#aE"/><use transform="matrix(0.06172839506172839,0,0,0.06172839506172839,12.345679012345679,0)" xlink:href="#ax"/></g><use transform="matrix(0.06172839506172839,0,0,0.06172839506172839,0,0)" xlink:href="#av" id="I"/><path fill="#333" d="M63-220v92h138v28H63V0H30v-248h175v28H63" id="aF"/><path fill="#333" d="M240 0l2-218c-23 76-54 145-80 218h-23L58-218 59 0H30v-248h44l77 211c21-75 51-140 76-211h43V0h-30" id="aG"/><g id="J"><use transform="matrix(0.06172839506172839,0,0,0.06172839506172839,0,0)" xlink:href="#aF"/><use transform="matrix(0.06172839506172839,0,0,0.06172839506172839,13.518518518518517,0)" xlink:href="#K"/><use transform="matrix(0.06172839506172839,0,0,0.06172839506172839,19.691358024691358,0)" xlink:href="#aG"/></g></defs></g></svg>